<?xml version="1.0" encoding="UTF-8" standalone="no"?>
<!-- Generator: Adobe Illustrator 22.1.0, SVG Export Plug-In . SVG Version: 6.00 Build 0)  -->

<svg
   version="1.1"
   x="0px"
   y="0px"
   viewBox="0 0 299.99999 271.3"
   xml:space="preserve"
   id="svg52"
   sodipodi:docname="CyberVoin0.svg"
   width="300"
   height="271.29999"
   xmlns:inkscape="http://www.inkscape.org/namespaces/inkscape"
   xmlns:sodipodi="http://sodipodi.sourceforge.net/DTD/sodipodi-0.dtd"
   xmlns="http://www.w3.org/2000/svg"
   xmlns:svg="http://www.w3.org/2000/svg"><defs
   id="defs56" /><sodipodi:namedview
   id="namedview54"
   pagecolor="#505050"
   bordercolor="#eeeeee"
   borderopacity="1"
   inkscape:showpageshadow="0"
   inkscape:pageopacity="0"
   inkscape:pagecheckerboard="0"
   inkscape:deskcolor="#505050"
   showgrid="false"
   inkscape:zoom="1.0096435"
   inkscape:cx="143.61505"
   inkscape:cy="222.35571"
   inkscape:window-width="1920"
   inkscape:window-height="1016"
   inkscape:window-x="0"
   inkscape:window-y="27"
   inkscape:window-maximized="1"
   inkscape:current-layer="svg52" />
<style
   type="text/css"
   id="style18">
	.st0{fill:none;stroke:#000000;stroke-width:5;stroke-miterlimit:10;}
	.st1{fill:none;stroke:#000000;stroke-miterlimit:10;}
	.st2{display:none;}
	.st3{fill:#FFFFFF;}
</style>
<g
   id="Слой_4"
   transform="translate(-75.78244,-160.53381)">
	<path
   class="st0"
   d="M 362.5,268.5"
   id="path20" />
	<path
   class="st0"
   d="m 259.4,170.5 c -57,0 -103.2,32.1 -103.2,86.2"
   id="path22" />
	<path
   class="st0"
   d="m 362.5,268.5 c 0,-54.1 -46.2,-98 -103.2,-98"
   id="path24" />
</g>
<g
   id="Слой_2"
   transform="translate(-75.78244,-160.53381)">
	<path
   class="st0"
   d="M 140.8,339.3"
   id="path27" />
	<path
   class="st0"
   d="m 362.5,268.5 c -0.1,25.1 -0.7,29.6 -2.4,36.7 -2.1,8.7 -13.8,34.6 -68.7,78.1 -27.1,21.4 -40.6,32.4 -56.6,36.1 -25.3,5.9 -63,3.5 -63,3.5 l -85.7,-2 c 0,0 56.3,-59.4 60.3,-75.2 4.1,-15.8 3.5,-22.1 3.5,-22.1"
   id="path29" />
	<path
   class="st0"
   d="m 159.8,320.6 c 0,0 -3.5,64 0,70 3.5,6 25,7 39,7 25.6,0.1 45.9,-13.1 50,-16.3 12.3,-9.8 25,-21.2 25,-51.2"
   id="path31" />
	<path
   class="st1"
   d="M 85.8,378.9"
   id="path33" />
</g>
<g
   id="Слой_1"
   transform="translate(-75.78244,-160.53381)">
	<path
   class="st0"
   d="m 267.2,256.7 c 13.7,0 17,11.8 17,11.8 0,0 0,24.2 0,40.5 0,22.2 -11.1,22.2 -11.1,22.2 0,0 -11.8,0 -33.3,0 -21.5,0 -41.8,-23.7 -51.6,-32 -8.6,-7.2 -16.3,3.9 -16.3,3.9 0,0 -11.8,22.8 -24.2,22.2 -15.8,-0.7 -17.6,-9.8 -17.6,-9.8 v -46.4 c 0,0 0,-8.5 8.5,-12.4 z"
   id="path36" />
	<polyline
   class="st0"
   points="172.4,326.6 166.8,314.9 173.8,300.7  "
   id="polyline38" />
	<line
   class="st0"
   x1="177.8"
   y1="317.5"
   x2="183.8"
   y2="326.60001"
   id="line40" />
	<line
   class="st0"
   x1="184.89999"
   y1="317.5"
   x2="190.7"
   y2="326.60001"
   id="line42" />
	<path
   class="st0"
   d="m 335.4,228.6 -1.3,69 c 0,0 1.3,12.3 -7.3,23 -8.7,10.7 -28,27.7 -28,27.7 l 1.7,-75.7 c 0,0 0,-16 12.3,-26.3 12.3,-10.3 22.6,-17.7 22.6,-17.7 z"
   id="path44" />
</g>

</svg>
